<?xml version="1.0" standalone="no"?>
<!DOCTYPE svg PUBLIC "-//W3C//DTD SVG 20010904//EN"
 "http://www.w3.org/TR/2001/REC-SVG-20010904/DTD/svg10.dtd">
<svg version="1.0" xmlns="http://www.w3.org/2000/svg"
 width="73.000000pt" height="73.000000pt" viewBox="0 0 73.000000 73.000000"
 preserveAspectRatio="xMidYMid meet">
<metadata>
Created by potrace 1.15, written by Peter Selinger 2001-2017
</metadata>
<g transform="translate(0.000000,73.000000) scale(0.100000,-0.100000)"
fill="#000000" stroke="none">
<path d="M182 547 l-182 -182 180 -180 180 -180 180 180 c99 99 180 183 180
186 0 7 -315 327 -341 347 -13 9 -45 -19 -197 -171z m318 -42 l125 -125 -135
-135 -135 -135 -40 40 -40 40 90 90 90 90 -88 88 -87 87 42 43 c24 23 45 42
48 42 3 0 61 -56 130 -125z"/>
</g>
</svg>
