<?xml version="1.0" standalone="no"?>
<!DOCTYPE svg PUBLIC "-//W3C//DTD SVG 20010904//EN"
 "http://www.w3.org/TR/2001/REC-SVG-20010904/DTD/svg10.dtd">
<svg version="1.0" xmlns="http://www.w3.org/2000/svg"
 width="73.000000pt" height="60.000000pt" viewBox="0 0 73.000000 60.000000"
 preserveAspectRatio="xMidYMid meet">
<metadata>
Created by potrace 1.15, written by Peter Selinger 2001-2017
</metadata>
<g transform="translate(0.000000,60.000000) scale(0.100000,-0.100000)"
fill="#000000" stroke="none">
<path d="M210 571 c-79 -25 -116 -47 -161 -93 -38 -40 -56 -76 -21 -45 10 9
44 29 77 44 51 24 73 28 150 28 111 0 176 -21 239 -76 82 -72 87 -159 13 -233
-41 -41 -102 -74 -114 -63 -3 4 1 34 10 67 l15 61 -37 -22 c-20 -12 -87 -51
-148 -87 -62 -37 -113 -69 -113 -72 0 -5 302 -70 324 -70 4 0 -4 16 -18 35
-31 40 -27 55 13 55 42 0 135 35 186 70 176 121 117 329 -114 401 -82 25 -224
25 -301 0z"/>
</g>
</svg>
