<?xml version="1.0" standalone="no"?>
<!DOCTYPE svg PUBLIC "-//W3C//DTD SVG 20010904//EN"
 "http://www.w3.org/TR/2001/REC-SVG-20010904/DTD/svg10.dtd">
<svg version="1.0" xmlns="http://www.w3.org/2000/svg"
 width="152.000000pt" height="74.000000pt" viewBox="0 0 152.000000 74.000000"
 preserveAspectRatio="xMidYMid meet">
<metadata>
Created by potrace 1.15, written by Peter Selinger 2001-2017
</metadata>
<g transform="translate(0.000000,74.000000) scale(0.100000,-0.100000)"
fill="#000000" stroke="none">
<path d="M278 643 l-86 -85 94 -94 93 -94 -90 -91 c-49 -50 -89 -94 -89 -98 0
-3 38 -44 85 -91 l85 -84 180 184 180 184 -173 169 c-94 93 -177 172 -183 177
-6 6 -41 -22 -96 -77z"/>
<path d="M750 615 l-75 -75 83 -83 82 -82 -82 -83 -83 -82 78 -77 77 -78 160
160 160 160 -157 157 c-87 87 -160 158 -163 158 -3 0 -39 -34 -80 -75z"/>
<path d="M1195 570 l-59 -60 62 -63 c34 -34 62 -67 62 -72 0 -5 -28 -38 -62
-72 l-63 -63 60 -60 60 -60 128 128 127 127 -128 128 -127 127 -60 -60z"/>
<path d="M70 435 l-64 -65 64 -65 65 -65 65 65 65 65 -65 65 -65 65 -65 -65z"/>
</g>
</svg>
